<?xml version="1.0" encoding="UTF-8" standalone="no"?>
<!DOCTYPE svg PUBLIC "-//W3C//DTD SVG 20010904//EN"
              "http://www.w3.org/TR/2001/REC-SVG-20010904/DTD/svg10.dtd">

<svg xmlns="http://www.w3.org/2000/svg"
     width="144.51mm" height="144.51mm"
     viewBox="0 0 512 512">
  <path id="Selection"
        fill="black" stroke="black" stroke-width="1"
        d="M 190.00,239.00
           C 181.11,234.31 170.42,223.05 164.37,215.00
             151.33,197.64 141.03,172.97 141.00,151.00
             141.00,151.00 141.00,122.00 141.00,122.00
             141.00,122.00 141.00,70.00 141.00,70.00
             141.00,70.00 141.00,43.00 141.00,43.00
             141.04,19.41 160.41,0.04 184.00,0.00
             184.00,0.00 257.00,0.00 257.00,0.00
             257.00,0.00 328.00,0.00 328.00,0.00
             351.59,0.04 370.96,19.41 371.00,43.00
             371.00,43.00 371.00,154.00 371.00,154.00
             370.71,178.80 356.59,207.18 339.91,225.00
             334.75,230.52 328.69,235.06 323.00,240.00
             388.99,262.00 438.63,310.88 460.67,377.00
             465.77,392.31 470.97,415.95 471.00,432.00
             471.00,432.00 471.00,512.00 471.00,512.00
             471.00,512.00 41.00,512.00 41.00,512.00
             41.00,512.00 41.00,432.00 41.00,432.00
             41.01,422.58 43.51,407.35 45.58,398.00
             56.09,350.34 82.79,306.97 121.00,276.45
             135.03,265.24 150.68,255.78 167.00,248.31
             167.00,248.31 190.00,239.00 190.00,239.00 Z
           M 247.00,30.00
           C 247.00,30.00 192.00,30.00 192.00,30.00
             186.17,30.07 179.71,30.80 175.53,35.33
             169.99,41.33 171.00,52.34 171.00,60.00
             171.00,60.00 205.00,60.00 205.00,60.00
             207.18,60.00 210.67,60.23 212.51,58.98
             214.87,57.36 217.03,49.92 224.04,43.09
             234.63,32.77 239.78,33.78 247.00,30.00 Z
           M 341.00,60.00
           C 341.00,52.34 342.01,41.33 336.47,35.33
             331.77,30.24 324.44,30.01 318.00,30.00
             318.00,30.00 283.00,30.00 283.00,30.00
             278.05,30.00 269.35,29.27 265.00,31.00
             274.64,32.49 283.31,37.79 289.82,45.01
             299.93,56.24 294.72,59.92 306.00,60.00
             306.00,60.00 341.00,60.00 341.00,60.00 Z
           M 252.00,61.42
           C 234.21,67.72 241.74,93.14 260.00,88.58
             270.06,86.07 273.29,72.71 266.47,65.33
             262.32,60.84 257.65,60.59 252.00,61.42 Z
           M 341.00,90.00
           C 341.00,90.00 307.00,90.00 307.00,90.00
             304.82,90.00 301.33,89.77 299.49,91.02
             297.13,92.64 294.97,100.08 287.96,106.91
             277.85,116.75 267.83,120.16 254.00,120.00
             242.13,119.86 231.27,114.45 223.09,105.96
             217.26,99.90 214.61,92.46 212.51,91.02
             210.67,89.77 207.18,90.00 205.00,90.00
             205.00,90.00 171.00,90.00 171.00,90.00
             171.00,90.00 171.00,124.00 171.00,124.00
             171.00,151.75 171.86,172.64 189.02,196.00
             225.13,245.18 303.60,238.52 331.03,184.00
             333.96,178.18 337.25,169.38 338.55,163.00
             342.11,145.58 341.00,109.27 341.00,90.00 Z
           M 302.00,266.00
           C 302.00,266.00 266.00,261.00 266.00,261.00
             266.00,261.00 245.00,261.00 245.00,261.00
             245.00,261.00 210.00,266.00 210.00,266.00
             212.65,271.60 217.67,275.67 222.00,280.00
             222.00,280.00 243.00,301.00 243.00,301.00
             245.45,303.45 252.78,311.80 256.00,311.80
             259.22,311.80 266.55,303.45 269.00,301.00
             269.00,301.00 290.00,280.00 290.00,280.00
             294.33,275.67 299.35,271.60 302.00,266.00 Z
           M 241.00,482.00
           C 241.00,482.00 241.00,350.00 241.00,350.00
             240.98,339.03 236.55,337.55 229.00,330.00
             229.00,330.00 207.00,308.00 207.00,308.00
             207.00,308.00 187.00,288.00 187.00,288.00
             184.71,285.71 180.06,280.47 177.00,279.81
             173.40,279.03 165.18,284.28 162.00,286.20
             149.97,293.46 136.94,303.11 127.00,313.00
             99.56,340.32 81.46,373.88 74.58,412.00
             73.30,419.09 72.04,426.80 72.00,434.00
             72.00,434.00 71.00,452.00 71.00,452.00
             71.00,452.00 71.00,482.00 71.00,482.00
             71.00,482.00 241.00,482.00 241.00,482.00 Z
           M 441.00,482.00
           C 441.00,482.00 441.00,453.00 441.00,453.00
             441.00,453.00 440.00,435.00 440.00,435.00
             439.99,427.27 438.80,419.59 437.42,412.00
             430.54,373.88 412.44,340.32 385.00,313.00
             375.06,303.11 362.03,293.46 350.00,286.20
             346.82,284.28 338.60,279.03 335.00,279.81
             331.94,280.47 327.29,285.71 325.00,288.00
             325.00,288.00 305.00,308.00 305.00,308.00
             305.00,308.00 283.00,330.00 283.00,330.00
             275.45,337.55 271.02,339.03 271.00,350.00
             271.00,350.00 271.00,482.00 271.00,482.00
             271.00,482.00 441.00,482.00 441.00,482.00 Z
           M 341.00,362.00
           C 341.00,362.00 371.00,362.00 371.00,362.00
             371.00,362.00 371.00,392.00 371.00,392.00
             371.00,392.00 401.00,392.00 401.00,392.00
             401.00,392.00 401.00,422.00 401.00,422.00
             401.00,422.00 371.00,422.00 371.00,422.00
             371.00,422.00 371.00,452.00 371.00,452.00
             371.00,452.00 341.00,452.00 341.00,452.00
             341.00,452.00 341.00,422.00 341.00,422.00
             341.00,422.00 311.00,422.00 311.00,422.00
             311.00,422.00 311.00,392.00 311.00,392.00
             311.00,392.00 341.00,392.00 341.00,392.00
             341.00,392.00 341.00,362.00 341.00,362.00 Z" />
</svg>
