<?xml version="1.0" encoding="UTF-8" standalone="no"?>
<!DOCTYPE svg PUBLIC "-//W3C//DTD SVG 20010904//EN"
              "http://www.w3.org/TR/2001/REC-SVG-20010904/DTD/svg10.dtd">

<svg xmlns="http://www.w3.org/2000/svg"
     width="1.11111in" height="1.11111in"
     viewBox="0 0 80 80">
  <path id="Selection"
        fill="black" stroke="black" stroke-width="1"
        d="M 30.00,4.00
           C 30.00,4.00 32.00,4.00 32.00,4.00
             32.00,15.75 31.99,21.35 42.00,29.00
             42.00,29.00 45.00,21.00 45.00,21.00
             38.60,17.26 40.00,10.48 40.00,4.00
             40.00,4.00 42.00,4.00 42.00,4.00
             42.00,4.00 44.00,19.00 44.00,19.00
             48.71,17.05 51.66,14.47 57.00,14.10
             67.38,13.37 74.47,20.40 77.07,30.00
             80.18,41.47 75.78,59.64 66.91,67.68
             58.12,75.64 44.04,78.19 33.00,73.88
             27.32,71.67 21.95,66.17 18.13,66.94
             14.75,67.62 15.23,71.36 12.00,74.00
             12.61,69.78 13.53,64.35 19.00,64.36
             22.53,64.36 27.00,67.79 30.00,69.55
             35.09,72.53 40.02,74.27 46.00,73.91
             65.23,72.73 76.69,55.15 75.96,37.00
             75.19,17.91 55.77,9.00 47.00,23.02
             40.71,33.08 47.70,48.53 39.61,56.61
             28.17,68.02 18.77,44.43 7.65,60.02
             6.33,61.86 5.53,63.82 4.93,66.00
             4.12,68.94 4.07,71.01 4.00,74.00
             4.00,74.00 2.00,74.00 2.00,74.00
             2.09,64.40 5.40,50.68 18.00,52.11
             26.19,53.23 33.06,63.62 39.59,52.11
             41.80,48.03 43.40,36.32 40.98,32.37
             39.39,29.78 35.32,28.48 32.44,23.00
             29.43,17.28 30.00,10.27 30.00,4.00 Z" />
</svg>
