<?xml version="1.0" encoding="UTF-8" standalone="no"?>
<!DOCTYPE svg PUBLIC "-//W3C//DTD SVG 20010904//EN"
              "http://www.w3.org/TR/2001/REC-SVG-20010904/DTD/svg10.dtd">

<svg xmlns="http://www.w3.org/2000/svg"
     width="1.11111in" height="1.11111in"
     viewBox="0 0 80 80">
  <path id="Selection"
        fill="black" stroke="black" stroke-width="1"
        d="M 2.00,28.00
           C 2.00,25.89 1.79,21.04 2.60,19.27
             4.09,16.00 16.31,11.69 20.00,10.20
             23.67,8.72 36.16,3.01 39.00,2.71
             42.48,2.35 45.87,4.26 49.00,5.58
             49.00,5.58 68.00,13.58 68.00,13.58
             70.53,14.64 75.49,16.16 76.98,18.41
             78.35,20.49 78.00,25.46 78.00,28.00
             78.00,28.00 76.00,27.00 76.00,27.00
             76.00,27.00 76.00,78.00 76.00,78.00
             76.00,78.00 4.00,78.00 4.00,78.00
             4.00,78.00 4.00,27.00 4.00,27.00
             4.00,27.00 2.00,28.00 2.00,28.00 Z
           M 76.00,24.00
           C 74.85,17.30 67.75,16.12 62.00,13.80
             57.61,12.03 43.68,5.39 40.00,5.42
             36.76,5.44 23.78,11.39 20.00,13.00
             16.83,14.35 6.65,17.99 5.02,20.41
             4.17,21.67 4.23,22.63 4.00,24.00
             4.00,24.00 29.00,14.15 29.00,14.15
             29.00,14.15 40.00,10.26 40.00,10.26
             40.00,10.26 51.00,14.01 51.00,14.01
             51.00,14.01 76.00,24.00 76.00,24.00 Z
           M 74.00,76.00
           C 74.00,76.00 74.00,34.00 74.00,34.00
             74.00,31.90 74.25,28.39 73.01,26.65
             71.72,24.84 67.13,23.20 65.00,22.28
             60.02,20.14 43.35,12.22 39.00,12.79
             36.14,13.17 24.38,18.40 21.00,19.85
             6.23,26.19 6.02,24.28 6.00,34.00
             6.00,34.00 6.00,76.00 6.00,76.00
             6.00,76.00 74.00,76.00 74.00,76.00 Z
           M 26.00,30.00
           C 26.00,30.00 34.00,30.00 34.00,30.00
             34.00,30.00 34.00,42.00 34.00,42.00
             34.00,42.00 46.00,42.00 46.00,42.00
             46.00,42.00 46.00,30.00 46.00,30.00
             46.00,30.00 54.00,30.00 54.00,30.00
             54.00,30.00 54.00,62.00 54.00,62.00
             54.00,62.00 46.00,62.00 46.00,62.00
             46.00,62.00 46.00,50.00 46.00,50.00
             46.00,50.00 34.00,50.00 34.00,50.00
             34.00,50.00 34.00,62.00 34.00,62.00
             34.00,62.00 26.00,62.00 26.00,62.00
             26.00,62.00 26.00,30.00 26.00,30.00 Z
           M 32.00,32.00
           C 32.00,32.00 28.00,32.00 28.00,32.00
             28.00,32.00 28.00,60.00 28.00,60.00
             28.00,60.00 32.00,60.00 32.00,60.00
             32.00,60.00 32.00,48.00 32.00,48.00
             32.00,48.00 48.00,48.00 48.00,48.00
             48.00,48.00 48.00,60.00 48.00,60.00
             48.00,60.00 52.00,60.00 52.00,60.00
             52.00,60.00 52.00,32.00 52.00,32.00
             52.00,32.00 48.00,32.00 48.00,32.00
             48.00,32.00 48.00,44.00 48.00,44.00
             48.00,44.00 32.00,44.00 32.00,44.00
             32.00,44.00 32.00,32.00 32.00,32.00 Z" />
</svg>
