<?xml version="1.0" encoding="UTF-8" standalone="no"?>
<!DOCTYPE svg PUBLIC "-//W3C//DTD SVG 20010904//EN"
              "http://www.w3.org/TR/2001/REC-SVG-20010904/DTD/svg10.dtd">

<svg xmlns="http://www.w3.org/2000/svg"
     width="1.11111in" height="1.11111in"
     viewBox="0 0 80 80">
  <path id="Selection"
        fill="black" stroke="black" stroke-width="1"
        d="M 18.00,54.00
           C 18.00,54.00 38.17,31.00 38.17,31.00
             38.17,31.00 50.97,17.00 50.97,17.00
             54.76,12.98 61.03,4.57 66.00,2.74
             72.47,0.36 79.18,6.30 77.55,13.00
             76.15,18.80 64.58,27.83 60.00,32.09
             60.00,32.09 39.00,51.69 39.00,51.69
             35.72,54.21 33.71,54.03 31.13,56.31
             27.18,59.80 27.74,63.19 25.28,67.00
             19.38,76.10 11.67,76.73 2.00,75.00
             2.00,75.00 22.00,54.00 22.00,54.00
             22.00,54.00 18.00,54.00 18.00,54.00 Z
           M 39.00,34.00
           C 42.28,34.00 51.40,34.33 54.00,33.41
             57.90,32.01 64.93,25.06 68.00,22.00
             70.71,19.30 75.74,15.10 75.63,11.00
             75.51,6.64 70.69,2.84 66.00,5.04
             61.86,6.98 53.64,17.17 50.00,21.00
             46.09,25.11 42.27,29.37 39.00,34.00 Z
           M 52.00,36.00
           C 45.07,36.00 38.84,34.33 34.00,40.00
             40.93,40.00 47.16,41.67 52.00,36.00 Z
           M 45.00,42.00
           C 38.18,42.00 32.76,40.42 28.00,46.00
             34.82,46.00 40.24,47.58 45.00,42.00 Z
           M 39.00,48.00
           C 32.34,48.00 27.68,46.53 23.00,52.00
             29.66,52.00 34.32,53.47 39.00,48.00 Z
           M 30.00,54.00
           C 28.07,54.16 26.83,54.11 25.00,55.02
             20.95,57.05 8.89,69.96 6.00,74.00
             23.56,73.84 22.19,66.24 30.00,54.00 Z" />
</svg>
