<?xml version="1.0" encoding="UTF-8" standalone="no"?>
<!DOCTYPE svg PUBLIC "-//W3C//DTD SVG 20010904//EN"
              "http://www.w3.org/TR/2001/REC-SVG-20010904/DTD/svg10.dtd">

<svg xmlns="http://www.w3.org/2000/svg"
     width="1.11111in" height="1.11111in"
     viewBox="0 0 80 80">
  <path id="Selection"
        fill="black" stroke="black" stroke-width="1"
        d="M 26.32,3.02
           C 30.98,1.24 42.54,1.90 48.00,2.00
             50.57,2.05 54.42,2.01 55.26,5.13
             56.03,8.01 53.14,9.75 52.29,13.09
             52.29,13.09 52.29,28.00 52.29,28.00
             52.00,30.17 51.89,32.95 52.29,35.00
             53.97,39.35 66.39,52.65 70.13,57.00
             72.87,60.20 77.23,64.67 77.73,69.00
             78.70,77.42 71.09,77.99 65.00,78.00
             65.00,78.00 13.00,78.00 13.00,78.00
             7.21,77.92 1.44,76.22 2.27,69.00
             2.76,64.68 7.13,60.19 9.87,57.00
             13.69,52.56 25.95,39.58 27.71,35.00
             28.11,32.95 28.00,30.17 27.71,28.00
             27.71,28.00 27.71,13.09 27.71,13.09
             26.57,8.59 22.30,7.56 26.32,3.02 Z
           M 53.88,3.88
           C 48.88,3.50 31.75,3.50 26.38,3.88
             26.38,3.88 26.00,7.00 26.00,7.00
             26.00,7.00 30.00,8.00 30.00,8.00
             30.00,8.00 29.40,36.00 29.40,36.00
             29.40,36.00 21.00,48.00 21.00,48.00
             21.00,48.00 59.00,48.00 59.00,48.00
             59.00,48.00 50.60,36.00 50.60,36.00
             50.60,36.00 50.00,8.00 50.00,8.00
             50.00,8.00 53.50,6.50 53.50,6.50
             53.50,6.50 53.88,3.88 53.88,3.88 Z
           M 35.00,20.00
           C 35.00,20.00 37.00,20.00 37.00,20.00
             37.00,20.00 38.00,21.00 38.00,21.00
             38.00,21.00 38.00,23.00 38.00,23.00
             38.00,23.00 37.00,24.00 37.00,24.00
             37.00,24.00 35.00,24.00 35.00,24.00
             35.00,24.00 34.00,23.00 34.00,23.00
             34.00,23.00 34.00,21.00 34.00,21.00
             34.00,21.00 35.00,20.00 35.00,20.00 Z
           M 40.31,35.08
           C 46.37,33.74 46.33,39.40 43.69,40.92
             41.05,42.44 36.12,39.65 40.31,35.08 Z
           M 60.62,50.62" />
</svg>
