<?xml version="1.0" encoding="UTF-8" standalone="no"?>
<!DOCTYPE svg PUBLIC "-//W3C//DTD SVG 20010904//EN"
              "http://www.w3.org/TR/2001/REC-SVG-20010904/DTD/svg10.dtd">

<svg xmlns="http://www.w3.org/2000/svg"
     width="1.11111in" height="1.11111in"
     viewBox="0 0 80 80">
  <path id="Selection"
        fill="black" stroke="black" stroke-width="1"
        d="M 47.00,5.03
           C 57.94,1.60 70.91,11.95 74.25,22.00
             75.09,24.52 76.20,28.42 75.36,31.00
             74.26,34.42 67.74,40.23 65.01,43.00
             65.01,43.00 43.14,65.29 43.14,65.29
             40.41,68.06 36.18,73.41 33.00,74.97
             29.74,76.57 25.27,75.37 22.00,74.24
             13.03,71.14 2.29,59.07 4.35,49.00
             5.20,44.83 11.92,39.08 15.00,36.00
             21.52,29.48 40.94,9.04 47.00,5.03 Z
           M 49.00,6.61
           C 44.24,9.07 40.77,13.23 37.00,17.00
             37.00,17.00 18.00,36.00 18.00,36.00
             15.10,38.90 7.82,45.46 6.61,49.00
             2.93,59.75 20.25,77.07 31.00,73.39
             34.34,72.24 39.37,66.63 42.00,64.00
             42.00,64.00 63.00,43.00 63.00,43.00
             65.77,40.23 72.21,34.44 73.39,31.00
             76.34,22.38 63.96,4.10 49.00,6.61 Z
           M 47.00,18.00
           C 47.00,18.00 49.00,18.00 49.00,18.00
             49.00,18.00 50.00,19.00 50.00,19.00
             50.00,19.00 50.00,21.00 50.00,21.00
             50.00,21.00 49.00,22.00 49.00,22.00
             49.00,22.00 47.00,22.00 47.00,22.00
             47.00,22.00 46.00,21.00 46.00,21.00
             46.00,21.00 46.00,19.00 46.00,19.00
             46.00,19.00 47.00,18.00 47.00,18.00 Z
           M 59.00,18.00
           C 59.00,18.00 61.00,18.00 61.00,18.00
             61.00,18.00 62.00,19.00 62.00,19.00
             62.00,19.00 62.00,21.00 62.00,21.00
             62.00,21.00 61.00,22.00 61.00,22.00
             61.00,22.00 59.00,22.00 59.00,22.00
             59.00,22.00 58.00,21.00 58.00,21.00
             58.00,21.00 58.00,19.00 58.00,19.00
             58.00,19.00 59.00,18.00 59.00,18.00 Z
           M 39.00,25.54
           C 40.29,25.39 39.86,24.72 42.00,25.54
             44.76,27.06 54.80,36.99 54.80,40.00
             54.80,43.05 43.93,53.93 41.00,54.66
             37.26,55.60 30.43,47.64 28.06,45.00
             26.85,43.65 25.20,41.95 25.20,40.00
             25.20,36.21 35.72,27.13 39.00,25.54 Z
           M 59.00,30.00
           C 59.00,30.00 61.00,30.00 61.00,30.00
             61.00,30.00 62.00,31.00 62.00,31.00
             62.00,31.00 62.00,33.00 62.00,33.00
             62.00,33.00 61.00,34.00 61.00,34.00
             61.00,34.00 59.00,34.00 59.00,34.00
             59.00,34.00 58.00,33.00 58.00,33.00
             58.00,33.00 58.00,31.00 58.00,31.00
             58.00,31.00 59.00,30.00 59.00,30.00 Z
           M 19.00,46.00
           C 19.00,46.00 21.00,46.00 21.00,46.00
             21.00,46.00 22.00,47.00 22.00,47.00
             22.00,47.00 22.00,49.00 22.00,49.00
             22.00,49.00 21.00,50.00 21.00,50.00
             21.00,50.00 19.00,50.00 19.00,50.00
             19.00,50.00 18.00,49.00 18.00,49.00
             18.00,49.00 18.00,47.00 18.00,47.00
             18.00,47.00 19.00,46.00 19.00,46.00 Z
           M 19.00,58.00
           C 19.00,58.00 21.00,58.00 21.00,58.00
             21.00,58.00 22.00,59.00 22.00,59.00
             22.00,59.00 22.00,61.00 22.00,61.00
             22.00,61.00 21.00,62.00 21.00,62.00
             21.00,62.00 19.00,62.00 19.00,62.00
             19.00,62.00 18.00,61.00 18.00,61.00
             18.00,61.00 18.00,59.00 18.00,59.00
             18.00,59.00 19.00,58.00 19.00,58.00 Z
           M 31.00,58.00
           C 31.00,58.00 33.00,58.00 33.00,58.00
             33.00,58.00 34.00,59.00 34.00,59.00
             34.00,59.00 34.00,61.00 34.00,61.00
             34.00,61.00 33.00,62.00 33.00,62.00
             33.00,62.00 31.00,62.00 31.00,62.00
             31.00,62.00 30.00,61.00 30.00,61.00
             30.00,61.00 30.00,59.00 30.00,59.00
             30.00,59.00 31.00,58.00 31.00,58.00 Z" />
</svg>
